<?xml version="1.0" encoding="UTF-8"?>
<svg version="1.1" xmlns="http://www.w3.org/2000/svg" width="512" height="512">
<path d="M0 0 C1.01790619 0.00215515 2.03581238 0.0043103 3.08456421 0.00653076 C17.69363523 0.05620146 32.02575853 0.30709809 46.375 3.3125 C47.34985352 3.51117676 48.32470703 3.70985352 49.32910156 3.91455078 C97.7109774 14.03517194 141.69928269 35.9516877 177.375 70.3125 C178.3640332 71.26068604 178.3640332 71.26068604 179.37304688 72.22802734 C188.86130305 81.37247479 197.6012044 90.66984009 205.375 101.3125 C206.23306152 102.46355017 207.09113451 103.61459177 207.94921875 104.765625 C213.98736829 112.95680614 219.34595521 121.47054105 224.375 130.3125 C224.73948242 130.94430176 225.10396484 131.57610352 225.47949219 132.22705078 C247.1357806 170.06343464 256.83581022 212.90058029 256.75 256.1875 C256.74918427 257.73970749 256.74918427 257.73970749 256.74835205 259.32327271 C256.70898306 275.64644355 255.88802839 291.31667006 252.375 307.3125 C252.15537598 308.33730469 251.93575195 309.36210937 251.70947266 310.41796875 C241.79267953 355.61552552 220.53593111 394.55208313 190.375 429.3125 C189.18003906 430.69501953 189.18003906 430.69501953 187.9609375 432.10546875 C184.02144278 436.57970588 180.00311491 440.71606768 175.44140625 444.5546875 C173.18753016 446.4719734 171.04007153 448.48312201 168.875 450.5 C135.61747051 480.36597016 93.50517529 499.70708716 49.9375 508.625 C49.21860596 508.77235596 48.49971191 508.91971191 47.7590332 509.0715332 C33.08339502 511.86090125 18.55831162 512.66142619 3.64770508 512.62817383 C0.70811513 512.6250221 -2.2304558 512.64854926 -5.16992188 512.67382812 C-18.54306192 512.71848737 -31.43916711 511.51301542 -44.625 509.3125 C-46.33055054 509.03031616 -46.33055054 509.03031616 -48.07055664 508.74243164 C-91.33802759 500.97044532 -132.38793216 480.98345309 -165.625 452.3125 C-166.37007813 451.67828125 -167.11515625 451.0440625 -167.8828125 450.390625 C-181.38779833 438.57948485 -194.05918743 425.82889772 -204.625 411.3125 C-205.48149066 410.16255169 -206.33826433 409.01281411 -207.1953125 407.86328125 C-213.23534209 399.67315742 -218.61867614 391.16870382 -223.625 382.3125 C-224.0271875 381.60528809 -224.429375 380.89807617 -224.84375 380.16943359 C-237.8691741 357.03404164 -246.61801461 331.86287591 -251.9375 305.875 C-252.08485596 305.15610596 -252.23221191 304.43721191 -252.3840332 303.6965332 C-255.35789088 288.05024391 -255.99800362 272.57681954 -255.9375 256.6875 C-255.93534485 255.66959381 -255.9331897 254.65168762 -255.93096924 253.60293579 C-255.88129854 238.99386477 -255.63040191 224.66174147 -252.625 210.3125 C-252.42632324 209.33764648 -252.22764648 208.36279297 -252.02294922 207.35839844 C-241.90232806 158.9765226 -219.9858123 114.98821731 -185.625 79.3125 C-184.99287598 78.65314453 -184.36075195 77.99378906 -183.70947266 77.31445312 C-174.56502521 67.82619695 -165.26765991 59.0862956 -154.625 51.3125 C-153.47394983 50.45443848 -152.32290823 49.59636549 -151.171875 48.73828125 C-142.98224019 42.70072604 -134.47961724 37.31792698 -125.625 32.3125 C-124.91778809 31.9103125 -124.21057617 31.508125 -123.48193359 31.09375 C-100.34654164 18.0683259 -75.17537591 9.31948539 -49.1875 4 C-48.46860596 3.85264404 -47.74971191 3.70528809 -47.0090332 3.5534668 C-31.36274391 0.57960912 -15.88931954 -0.06050362 0 0 Z " fill="#50206C" transform="translate(255.625,-0.3125)"/>
<path d="M0 0 C5.11936967 4.36311447 10.14203216 8.7831312 15 13.4375 C16.03833984 14.38206055 16.03833984 14.38206055 17.09765625 15.34570312 C18.96931146 17.15596209 20.57986266 18.81671008 22 21 C22 24.66015625 22 24.66015625 21 28 C18.41163004 39.37033948 19.20301895 52.03948386 23 63 C23.32871094 63.97066406 23.65742188 64.94132812 23.99609375 65.94140625 C30.64886499 83.59772301 42.97147902 96.12133683 60 104 C77.6506717 110.68644441 95.3839181 110.8764988 112.7734375 103.45703125 C130.54017721 95.03613618 141.78550463 82.09139511 149 64 C154.54915361 46.99991735 153.08340383 29.81933204 145.6875 13.6875 C145.34074219 13.01074219 144.99398437 12.33398438 144.63671875 11.63671875 C144.42660156 11.09660156 144.21648437 10.55648437 144 10 C144.33 9.34 144.66 8.68 145 8 C160.6978663 23.30010746 176.34636854 38.64915612 191.93817139 54.05736446 C199.1795247 61.21119113 206.4359438 68.34836315 213.73046875 75.44799805 C220.09109003 81.63876111 226.42088522 87.85919932 232.71604538 94.11654097 C236.04831554 97.42671471 239.39370494 100.72047777 242.77648926 103.97907829 C245.96604712 107.05248658 249.11256805 110.16431399 252.23182678 113.3089962 C253.37804123 114.45056636 254.53871121 115.57784911 255.71495056 116.68845749 C261.34320935 122.01789264 265.49614724 126.53964825 265.77348709 134.62942082 C265.70613408 138.12739009 265.4011999 141.52134855 265 145 C264.88470444 146.21151702 264.76940887 147.42303404 264.65061951 148.67126369 C264.32549427 151.82392164 263.87427181 154.93288309 263.375 158.0625 C263.10876831 159.7786853 263.10876831 159.7786853 262.8371582 161.52954102 C254.64263672 211.95174937 232.25931723 255.6686989 199 294 C197.80503906 295.38251953 197.80503906 295.38251953 196.5859375 296.79296875 C192.64644278 301.26720588 188.62811491 305.40356768 184.06640625 309.2421875 C181.81253016 311.1594734 179.66507153 313.17062201 177.5 315.1875 C138.56612888 350.15094591 86.32887557 372.27948738 34.27818954 376.79140568 C32.82993064 376.92401035 31.38288543 377.0713142 29.93818295 377.23826504 C22.65888271 378.04170319 16.02691086 378.58377735 9.95349205 373.83337402 C7.17450229 371.34855579 4.61238759 368.69347996 2.05444336 365.984375 C0.87334295 364.79846948 -0.31153304 363.61631427 -1.49983215 362.43762207 C-4.690799 359.25150061 -7.82689043 356.01602453 -10.95518804 352.76850891 C-14.24215321 349.37471025 -17.57787603 346.02951914 -20.90855408 342.67871094 C-27.19720505 336.33738326 -33.44129418 329.95401839 -39.6702351 323.55408859 C-46.76832256 316.26547293 -53.91519452 309.02551623 -61.06641591 301.78908539 C-75.76556697 286.91260832 -90.40290122 271.97658142 -105 257 C-102 256 -102 256 -99.5390625 257.109375 C-98.57742187 257.65078125 -97.61578125 258.1921875 -96.625 258.75 C-82.0592228 266.22408615 -64.15360804 267.82037588 -48.4375 262.875 C-38.95356119 259.61632566 -30.80686446 255.28226899 -23.55859375 248.3203125 C-22 247 -22 247 -20 247 C-19.60554688 246.13181641 -19.60554688 246.13181641 -19.203125 245.24609375 C-17.93939939 242.88686574 -16.48383984 241.09702828 -14.75 239.0625 C-3.29097951 224.49999479 -0.39927913 207.01827601 -2 189 C-4.4490419 172.55698567 -13.76043648 157.5745203 -26.34765625 146.9453125 C-40.64120787 136.46197126 -57.24878642 131.40313351 -75 133 C-75.95600098 133.2789209 -76.91200195 133.5578418 -77.89697266 133.84521484 C-83.05087063 135.16761169 -86.39465583 135.9423872 -91.125 133.16552734 C-93.73040109 130.86496839 -96.11330628 128.54781876 -98.43505859 125.97119141 C-99.88602122 124.36278285 -101.38551731 122.81574406 -102.90234375 121.26953125 C-108.0515432 115.87202869 -108.0515432 115.87202869 -110 113 C-109.69652215 109.20666442 -107.74997208 107.38529343 -105.12280273 104.78222656 C-104.30202744 103.96167786 -103.48125214 103.14112915 -102.63560486 102.29571533 C-101.74394119 101.41953552 -100.85227753 100.54335571 -99.93359375 99.640625 C-99.02497086 98.73624695 -98.11634796 97.8318689 -97.18019104 96.90008545 C-94.76846236 94.49979247 -92.34785998 92.10864631 -89.92529297 89.71929932 C-87.45323168 87.27796639 -84.98967695 84.82808261 -82.52539062 82.37890625 C-77.69188105 77.57753826 -72.84894227 72.78578051 -68 68 C-64.68386118 69.44580966 -62.50814272 71.24829792 -59.96582031 73.80712891 C-59.18531311 74.58778717 -58.40480591 75.36844543 -57.60064697 76.17276001 C-56.76821472 77.01551483 -55.93578247 77.85826965 -55.078125 78.7265625 C-54.21813904 79.58937836 -53.35815308 80.45219421 -52.47210693 81.34115601 C-49.7266769 84.09778029 -46.9882831 86.86127799 -44.25 89.625 C-42.38978217 91.49524857 -40.52911054 93.36504589 -38.66796875 95.234375 C-34.10670055 99.8176936 -29.55118989 104.40667478 -25 109 C-21.37916872 107.30145963 -19.05744646 105.28895218 -16.234375 102.4296875 C-15.34492188 101.53378906 -14.45546875 100.63789063 -13.5390625 99.71484375 C-12.61867188 98.77769531 -11.69828125 97.84054688 -10.75 96.875 C-9.80515144 95.92011363 -8.85984367 94.96568141 -7.9140625 94.01171875 C-5.60481662 91.67890913 -3.30036797 89.34155914 -1 87 C-5.56147547 81.52686034 -10.40741321 76.46045191 -15.4609375 71.44140625 C-16.25150543 70.65225327 -17.04207336 69.86310028 -17.8565979 69.05003357 C-20.36037626 66.55181339 -22.86762475 64.05710956 -25.375 61.5625 C-27.08226248 59.86025792 -28.78929609 58.15778627 -30.49609375 56.45507812 C-34.66141898 52.30072637 -38.82959219 48.14924919 -43 44 C-38.37508621 38.44560076 -33.44639036 33.31474331 -28.3203125 28.22265625 C-27.50754852 27.41130722 -26.69478455 26.59995819 -25.85739136 25.76402283 C-23.28228262 23.1944741 -20.7037038 20.62844032 -18.125 18.0625 C-16.36956054 16.31208071 -14.61434983 14.561432 -12.859375 12.81054688 C-8.57555918 8.53770698 -4.28889528 4.26774101 0 0 Z " fill="#3D1952" transform="translate(247,135)"/>
<path d="M0 0 C14.86825327 10.97387613 24.62727747 26.76667007 28 45 C29.94156813 64.89732723 25.3191445 82.23500749 13.1875 98.3125 C3.32162048 109.94484175 -12.57906316 120.05810425 -28 122 C-48.45332807 123.44088576 -66.7590265 119.83328328 -82.69921875 106.13671875 C-96.75471381 93.0834831 -104.75235372 76.81575136 -106.265625 57.6328125 C-106.81079904 40.45983018 -100.49867095 23.45886475 -89.3515625 10.375 C-65.19229831 -14.0250542 -28.88157224 -19.80963932 0 0 Z " fill="#DEDEE1" transform="translate(218,279)"/>
<path d="M0 0 C14.72732012 12.77861524 24.22547029 28.63073323 26.15234375 48.33203125 C26.74126793 68.23766857 20.28128869 85.62062662 6.76953125 100.41796875 C-3.00556078 110.7254732 -15.59241558 116.33503719 -29.23046875 119.41796875 C-30.05804688 119.60875 -30.885625 119.79953125 -31.73828125 119.99609375 C-49.25395753 122.96112986 -66.92156781 117.24832745 -81.265625 107.31640625 C-95.65591983 96.11295801 -105.73847176 79.62038153 -108.23046875 61.41796875 C-109.52731688 43.75951612 -106.1397237 26.20042987 -94.6484375 12.1171875 C-71.0668976 -15.10353051 -29.41726346 -24.27879918 0 0 Z " fill="#DEDEE1" transform="translate(374.23046875,124.58203125)"/>
<path d="M0 0 C3.35999018 1.45868754 5.55203106 3.30868948 8.12597656 5.89892578 C8.92650452 6.6996048 9.72703247 7.50028381 10.55181885 8.32522583 C11.40612488 9.18985443 12.26043091 10.05448303 13.140625 10.9453125 C14.02280701 11.8303244 14.90498901 12.7153363 15.81390381 13.62716675 C18.15194543 15.97450131 20.48555874 18.32606785 22.81713867 20.67980957 C25.19996526 23.08313927 27.58850348 25.48077767 29.9765625 27.87890625 C34.65631862 32.58071467 39.33031867 37.28818664 44 42 C47.35999018 40.54131246 49.55203106 38.69131052 52.12597656 36.10107422 C52.92650452 35.3003952 53.72703247 34.49971619 54.55181885 33.67477417 C55.83327789 32.37783127 55.83327789 32.37783127 57.140625 31.0546875 C58.02280701 30.1696756 58.90498901 29.2846637 59.81390381 28.37283325 C62.15194543 26.02549869 64.48555874 23.67393215 66.81713867 21.32019043 C69.19996526 18.91686073 71.58850348 16.51922233 73.9765625 14.12109375 C78.65631862 9.41928533 83.33031867 4.71181336 88 0 C93.79559764 2.73257042 97.80843512 7.39918361 102.3125 11.875 C103.25673828 12.78636719 104.20097656 13.69773437 105.17382812 14.63671875 C106.06134766 15.51714844 106.94886719 16.39757812 107.86328125 17.3046875 C108.68094971 18.10890137 109.49861816 18.91311523 110.34106445 19.74169922 C112 22 112 22 111.8460083 23.87753296 C110.74815519 26.63182868 109.2291766 28.1307241 107.12280273 30.21777344 C105.89163979 31.4485965 105.89163979 31.4485965 104.63560486 32.70428467 C103.74394119 33.58046448 102.85227753 34.45664429 101.93359375 35.359375 C100.57065941 36.71594208 100.57065941 36.71594208 99.18019104 38.09991455 C96.76846236 40.50020753 94.34785998 42.89135369 91.92529297 45.28070068 C89.45323168 47.72203361 86.98967695 50.17191739 84.52539062 52.62109375 C79.69188105 57.42246174 74.84894227 62.21421949 70 67 C74.56147547 72.47313966 79.40741321 77.53954809 84.4609375 82.55859375 C85.25150543 83.34774673 86.04207336 84.13689972 86.8565979 84.94996643 C89.36037626 87.44818661 91.86762475 89.94289044 94.375 92.4375 C96.08226248 94.13974208 97.78929609 95.84221373 99.49609375 97.54492188 C103.66141898 101.69927363 107.82959219 105.85075081 112 110 C110.26239853 113.71713736 108.14323122 116.08741012 105.2109375 118.984375 C104.74765045 119.44483215 104.2843634 119.90528931 103.80703735 120.37969971 C102.33434102 121.84125078 100.85482597 123.29567168 99.375 124.75 C98.37193678 125.74302611 97.36932743 126.73651089 96.3671875 127.73046875 C93.91669165 130.15897941 91.4600333 132.58114675 89 135 C83.44560076 130.37508621 78.31474331 125.44639036 73.22265625 120.3203125 C72.41130722 119.50754852 71.59995819 118.69478455 70.76402283 117.85739136 C68.1944741 115.28228262 65.62844032 112.7037038 63.0625 110.125 C61.31208071 108.36956054 59.561432 106.61434983 57.81054688 104.859375 C53.53770698 100.57555918 49.26774101 96.28889528 45 92 C39.52686034 96.56147547 34.46045191 101.40741321 29.44140625 106.4609375 C28.25767677 107.6467894 28.25767677 107.6467894 27.05003357 108.8565979 C24.55181339 111.36037626 22.05710956 113.86762475 19.5625 116.375 C17.86025792 118.08226248 16.15778627 119.78929609 14.45507812 121.49609375 C10.30072637 125.66141898 6.14924919 129.82959219 2 134 C-1.62083128 132.30145963 -3.94255354 130.28895218 -6.765625 127.4296875 C-7.65507812 126.53378906 -8.54453125 125.63789063 -9.4609375 124.71484375 C-10.38132812 123.77769531 -11.30171875 122.84054687 -12.25 121.875 C-13.19484856 120.92011363 -14.14015633 119.96568141 -15.0859375 119.01171875 C-17.39518338 116.67890913 -19.69963203 114.34155914 -22 112 C-20.54131246 108.64000982 -18.69131052 106.44796894 -16.10107422 103.87402344 C-15.3003952 103.07349548 -14.49971619 102.27296753 -13.67477417 101.44818115 C-12.81014557 100.59387512 -11.94551697 99.73956909 -11.0546875 98.859375 C-10.1696756 97.97719299 -9.2846637 97.09501099 -8.37283325 96.18609619 C-6.02549869 93.84805457 -3.67393215 91.51444126 -1.32019043 89.18286133 C1.08313927 86.80003474 3.48077767 84.41149652 5.87890625 82.0234375 C10.58071467 77.34368138 15.28818664 72.66968133 20 68 C18.57102826 64.74286331 16.82743513 62.57913106 14.31640625 60.07348633 C13.56222412 59.31622757 12.80804199 58.55896881 12.03100586 57.77876282 C11.21639893 56.9713414 10.40179199 56.16391998 9.5625 55.33203125 C8.72662354 54.49661301 7.89074707 53.66119476 7.02954102 52.80046082 C5.26327 51.03720901 3.49457106 49.27638644 1.72363281 47.51782227 C-0.99471637 44.81774811 -3.70495993 42.10973903 -6.4140625 39.40039062 C-8.12973667 37.68963102 -9.845867 35.97932874 -11.5625 34.26953125 C-12.7844104 33.04929008 -12.7844104 33.04929008 -14.03100586 31.80439758 C-14.78518799 31.05659531 -15.53937012 30.30879303 -16.31640625 29.53833008 C-16.98099854 28.87754959 -17.64559082 28.2167691 -18.33032227 27.53596497 C-19.9360784 25.91678737 -19.9360784 25.91678737 -22 25 C-21.48817777 20.82082347 -19.23850155 18.89289972 -16.30859375 16.015625 C-15.61154076 15.32493927 -15.61154076 15.32493927 -14.90040588 14.62030029 C-13.41968181 13.15632189 -11.92885481 11.70313959 -10.4375 10.25 C-9.42965336 9.25720551 -8.42248367 8.2637233 -7.41601562 7.26953125 C-4.95180539 4.83833527 -2.47842671 2.41671132 0 0 Z " fill="#DEDEE0" transform="translate(288,267)"/>
<path d="M0 0 C1.19921875 1.22265625 1.19921875 1.22265625 2.6875 3.0625 C8.66763621 10.12877206 15.4184 16.500908 22 23 C20.54131246 26.35999018 18.69131052 28.55203106 16.10107422 31.12597656 C15.3003952 31.92650452 14.49971619 32.72703247 13.67477417 33.55181885 C12.37783127 34.83327789 12.37783127 34.83327789 11.0546875 36.140625 C10.1696756 37.02280701 9.2846637 37.90498901 8.37283325 38.81390381 C6.02549869 41.15194543 3.67393215 43.48555874 1.32019043 45.81713867 C-1.08313927 48.19996526 -3.48077767 50.58850348 -5.87890625 52.9765625 C-10.58071467 57.65631862 -15.28818664 62.33031867 -20 67 C-15.37508621 72.55439924 -10.44639036 77.68525669 -5.3203125 82.77734375 C-4.50754852 83.58869278 -3.69478455 84.40004181 -2.85739136 85.23597717 C-0.28228262 87.8055259 2.2962962 90.37155968 4.875 92.9375 C6.63043946 94.68791929 8.38565017 96.438568 10.140625 98.18945312 C14.42444082 102.46229302 18.71110472 106.73225899 23 111 C19.68400925 114.93088136 16.34860835 118.77715018 12.6953125 122.40234375 C11.94765625 123.14677734 11.2 123.89121094 10.4296875 124.65820312 C9.28886719 125.78645508 9.28886719 125.78645508 8.125 126.9375 C7.34125 127.71673828 6.5575 128.49597656 5.75 129.29882812 C3.83561419 131.20154085 1.91891966 133.10186171 0 135 C-3.35999018 133.54131246 -5.55203106 131.69131052 -8.12597656 129.10107422 C-8.92650452 128.3003952 -9.72703247 127.49971619 -10.55181885 126.67477417 C-11.40612488 125.81014557 -12.26043091 124.94551697 -13.140625 124.0546875 C-14.02280701 123.1696756 -14.90498901 122.2846637 -15.81390381 121.37283325 C-18.15194543 119.02549869 -20.48555874 116.67393215 -22.81713867 114.32019043 C-25.19996526 111.91686073 -27.58850348 109.51922233 -29.9765625 107.12109375 C-34.65631862 102.41928533 -39.33031867 97.71181336 -44 93 C-47.35999018 94.45868754 -49.55203106 96.30868948 -52.12597656 98.89892578 C-53.32676849 100.09994431 -53.32676849 100.09994431 -54.55181885 101.32522583 C-55.40612488 102.18985443 -56.26043091 103.05448303 -57.140625 103.9453125 C-58.02280701 104.8303244 -58.90498901 105.7153363 -59.81390381 106.62716675 C-62.15194543 108.97450131 -64.48555874 111.32606785 -66.81713867 113.67980957 C-69.19996526 116.08313927 -71.58850348 118.48077767 -73.9765625 120.87890625 C-78.65631862 125.58071467 -83.33031867 130.28818664 -88 135 C-91.93088136 131.68400925 -95.77715018 128.34860835 -99.40234375 124.6953125 C-100.14677734 123.94765625 -100.89121094 123.2 -101.65820312 122.4296875 C-102.41037109 121.66914063 -103.16253906 120.90859375 -103.9375 120.125 C-104.71673828 119.34125 -105.49597656 118.5575 -106.29882812 117.75 C-108.20154085 115.83561419 -110.10186171 113.91891966 -112 112 C-107.43852453 106.52686034 -102.59258679 101.46045191 -97.5390625 96.44140625 C-96.74849457 95.65225327 -95.95792664 94.86310028 -95.1434021 94.05003357 C-92.63962374 91.55181339 -90.13237525 89.05710956 -87.625 86.5625 C-85.91773752 84.86025792 -84.21070391 83.15778627 -82.50390625 81.45507812 C-78.33858102 77.30072637 -74.17040781 73.14924919 -70 69 C-71.45868754 65.64000982 -73.30868948 63.44796894 -75.89892578 60.87402344 C-76.6996048 60.07349548 -77.50028381 59.27296753 -78.32522583 58.44818115 C-79.18985443 57.59387512 -80.05448303 56.73956909 -80.9453125 55.859375 C-81.8303244 54.97719299 -82.7153363 54.09501099 -83.62716675 53.18609619 C-85.97450131 50.84805457 -88.32606785 48.51444126 -90.67980957 46.18286133 C-93.08313927 43.80003474 -95.48077767 41.41149652 -97.87890625 39.0234375 C-102.58071467 34.34368138 -107.28818664 29.66968133 -112 25 C-110.30145963 21.37916872 -108.28895218 19.05744646 -105.4296875 16.234375 C-104.08583984 14.90019531 -104.08583984 14.90019531 -102.71484375 13.5390625 C-101.77769531 12.61867188 -100.84054688 11.69828125 -99.875 10.75 C-98.92011363 9.80515144 -97.96568141 8.85984367 -97.01171875 7.9140625 C-94.67890913 5.60481662 -92.34155914 3.30036797 -90 1 C-86.67848484 2.44299362 -84.54524958 4.23394182 -82.02929688 6.82299805 C-80.87790222 7.99882698 -80.87790222 7.99882698 -79.70324707 9.19841003 C-78.47342102 10.46724785 -78.47342102 10.46724785 -77.21875 11.76171875 C-75.47308536 13.5375313 -73.72697821 15.31290895 -71.98046875 17.08789062 C-69.2298857 19.89441189 -66.48336384 22.70461817 -63.74462891 25.52270508 C-61.10115912 28.23840728 -58.44251762 30.93847158 -55.78125 33.63671875 C-54.55142395 34.9146656 -54.55142395 34.9146656 -53.29675293 36.21842957 C-52.52915649 36.99285904 -51.76156006 37.76728851 -50.97070312 38.56518555 C-50.29881958 39.25420456 -49.62693604 39.94322357 -48.93469238 40.65312195 C-47.12100903 42.19771561 -47.12100903 42.19771561 -45.01345825 41.95700073 C-42.42080591 40.72470789 -40.82779223 39.17246188 -38.81396484 37.12280273 C-37.99987152 36.30202744 -37.1857782 35.48125214 -36.34701538 34.63560486 C-35.47710968 33.74394119 -34.60720398 32.85227753 -33.7109375 31.93359375 C-32.8113028 31.02497086 -31.91166809 30.11634796 -30.98477173 29.18019104 C-28.59652341 26.76697796 -26.21442824 24.34804165 -23.83587646 21.92529297 C-20.47796106 18.5055083 -17.11451418 15.09127404 -13.74380493 11.68409729 C-11.94915027 9.86956152 -10.15945638 8.05010408 -8.37509155 6.22544861 C-7.56730255 5.40782547 -6.75951355 4.59020233 -5.92724609 3.74780273 C-5.21539154 3.02245834 -4.50353699 2.29711395 -3.77011108 1.54978943 C-2 0 -2 0 0 0 Z " fill="#DEDEE1" transform="translate(224,110)"/>
<path d="M0 0 C0 10.89 0 21.78 0 33 C-4.62 34.32 -9.24 35.64 -14 37 C-23.15619441 42.03590693 -28.40249763 48.14552359 -32 58 C-33.2097236 68.691341 -32.33233124 78.22355835 -25.75 87 C-25.1725 87.66 -24.595 88.32 -24 89 C-24 89.66 -24 90.32 -24 91 C-23.45988281 91.26683594 -22.91976562 91.53367187 -22.36328125 91.80859375 C-20.64198075 92.67635681 -18.93247703 93.56763915 -17.23046875 94.47265625 C-11.73497782 97.34385626 -7.20618545 99.5862543 -1 100 C0 101 0 101 0.11352539 104.05102539 C0.11336634 105.39991271 0.10767612 106.74880614 0.09765625 108.09765625 C0.0962413 108.80651474 0.09482635 109.51537323 0.09336853 110.24571228 C0.08775443 112.51801712 0.07519963 114.79022475 0.0625 117.0625 C0.05748681 118.59960796 0.05292359 120.13671745 0.04882812 121.67382812 C0.03778042 125.44925642 0.02050641 129.22461171 0 133 C-17.83067188 133.50153514 -31.94843713 128.06139507 -45.6875 116.4375 C-58.55748246 104.14240149 -66.84783253 86.63572373 -67.29272461 68.78417969 C-67.44819387 50.82652067 -61.75052858 34.17199284 -49.18261719 21.05737305 C-38.93573634 10.78436996 -25.74962858 2.0915516 -11 0.375 C-10.401875 0.30023438 -9.80375 0.22546875 -9.1875 0.1484375 C-6.13162776 -0.05892526 -3.06289968 0 0 0 Z " fill="#FDFDFD" transform="translate(333,111)"/>
<path d="M0 0 C0 10.56 0 21.12 0 32 C-6.435 33.98 -6.435 33.98 -13 36 C-21.25300769 40.70108033 -27.66135797 46.32991349 -31.3046875 55.28515625 C-34.06333847 66.05629346 -32.15863192 75.76138131 -26.75 85.17578125 C-20.27881463 94.93771145 -11.19434429 97.20141393 0 100 C0 110.89 0 121.78 0 133 C-19.40564651 133 -34.23684044 125.9356006 -48.33203125 112.83203125 C-60.7673908 100.18482571 -66.82022976 82.66276245 -67.375 65.1875 C-67.06015752 48.3526876 -59.87996991 30.99837493 -48 19 C-33.53046433 6.23946461 -19.59253002 0 0 0 Z " fill="#FDFDFD" transform="translate(179,268)"/>
<path d="M0 0 C3.34541392 1.45534013 5.54073834 3.2925781 8.11010742 5.8671875 C8.90740768 6.66141113 9.70470795 7.45563477 10.52616882 8.27392578 C11.3773378 9.13228027 12.22850677 9.99063477 13.10546875 10.875 C14.42518425 12.19540283 14.42518425 12.19540283 15.77156067 13.54248047 C18.10436604 15.87907852 20.43250104 18.22021025 22.7588501 20.56323242 C24.66182795 22.47702311 26.57036611 24.3852173 28.47906017 26.29330444 C30.75316431 28.56774552 33.02300854 30.84642423 35.29296875 33.125 C36.57883125 34.41253174 36.57883125 34.41253174 37.89067078 35.72607422 C38.67851456 36.52029785 39.46635834 37.31452148 40.27807617 38.1328125 C41.32254158 39.18299561 41.32254158 39.18299561 42.3881073 40.25439453 C49.14872561 47.57583243 48.10745607 65.06802288 48.05395508 74.48780823 C47.13396087 92.86285314 36.30209929 103.63311651 23.5 115.4375 C22.98588058 115.91158672 22.47176117 116.38567345 21.94206238 116.87412643 C15.47569066 122.79980828 8.82801615 128.49483858 2 134 C-1.62083128 132.30145963 -3.94255354 130.28895218 -6.765625 127.4296875 C-7.65507812 126.53378906 -8.54453125 125.63789063 -9.4609375 124.71484375 C-10.38132812 123.77769531 -11.30171875 122.84054687 -12.25 121.875 C-13.19484856 120.92011363 -14.14015633 119.96568141 -15.0859375 119.01171875 C-17.39518338 116.67890913 -19.69963203 114.34155914 -22 112 C-20.54131246 108.64000982 -18.69131052 106.44796894 -16.10107422 103.87402344 C-15.3003952 103.07349548 -14.49971619 102.27296753 -13.67477417 101.44818115 C-12.81014557 100.59387512 -11.94551697 99.73956909 -11.0546875 98.859375 C-10.1696756 97.97719299 -9.2846637 97.09501099 -8.37283325 96.18609619 C-6.02549869 93.84805457 -3.67393215 91.51444126 -1.32019043 89.18286133 C1.08313927 86.80003474 3.48077767 84.41149652 5.87890625 82.0234375 C10.58071467 77.34368138 15.28818664 72.66968133 20 68 C18.57102826 64.74286331 16.82743513 62.57913106 14.31640625 60.07348633 C13.56222412 59.31622757 12.80804199 58.55896881 12.03100586 57.77876282 C11.21639893 56.9713414 10.40179199 56.16391998 9.5625 55.33203125 C8.72662354 54.49661301 7.89074707 53.66119476 7.02954102 52.80046082 C5.26327 51.03720901 3.49457106 49.27638644 1.72363281 47.51782227 C-0.99471637 44.81774811 -3.70495993 42.10973903 -6.4140625 39.40039062 C-8.12973667 37.68963102 -9.845867 35.97932874 -11.5625 34.26953125 C-12.7844104 33.04929008 -12.7844104 33.04929008 -14.03100586 31.80439758 C-14.78518799 31.05659531 -15.53937012 30.30879303 -16.31640625 29.53833008 C-16.98099854 28.87754959 -17.64559082 28.2167691 -18.33032227 27.53596497 C-19.9360784 25.91678737 -19.9360784 25.91678737 -22 25 C-21.48817777 20.82082347 -19.23850155 18.89289972 -16.30859375 16.015625 C-15.61154076 15.32493927 -15.61154076 15.32493927 -14.90040588 14.62030029 C-13.41968181 13.15632189 -11.92885481 11.70313959 -10.4375 10.25 C-9.42965336 9.25720551 -8.42248367 8.2637233 -7.41601562 7.26953125 C-4.95180539 4.83833527 -2.47842671 2.41671132 0 0 Z " fill="#FDFDFD" transform="translate(288,267)"/>
<path d="M0 0 C16.50263509 7.57654197 39.77164856 29.22483854 46.21069336 46.18981934 C48.11449014 53.62418796 48.3510885 60.92871959 48 68.5625 C47.93637268 70.08875504 47.93637268 70.08875504 47.87145996 71.64584351 C47.70337281 74.57158451 47.44845934 77.46646765 47.125 80.37890625 C47.03083801 81.23563934 46.93667603 82.09237244 46.83966064 82.97506714 C45.76051072 89.68756005 42.76704796 93.31404886 38 98 C37.33509552 98.68473892 36.67019104 99.36947784 35.98513794 100.07496643 C33.82486288 102.29060437 31.63705416 104.47568522 29.44140625 106.65625 C28.25767677 107.83785706 28.25767677 107.83785706 27.05003357 109.04333496 C24.55654988 111.53127102 22.05959216 114.01568624 19.5625 116.5 C17.85979413 118.1976841 16.15731793 119.89559858 14.45507812 121.59375 C10.30603588 125.7318328 6.15414424 129.86703935 2 134 C-1.93088136 130.68400925 -5.77715018 127.34860835 -9.40234375 123.6953125 C-10.14677734 122.94765625 -10.89121094 122.2 -11.65820312 121.4296875 C-12.41037109 120.66914063 -13.16253906 119.90859375 -13.9375 119.125 C-14.71673828 118.34125 -15.49597656 117.5575 -16.29882812 116.75 C-18.20154085 114.83561419 -20.10186171 112.91891966 -22 111 C-17.43852453 105.52686034 -12.59258679 100.46045191 -7.5390625 95.44140625 C-6.74849457 94.65225327 -5.95792664 93.86310028 -5.1434021 93.05003357 C-2.63962374 90.55181339 -0.13237525 88.05710956 2.375 85.5625 C4.08226248 83.86025792 5.78929609 82.15778627 7.49609375 80.45507812 C11.66141898 76.30072637 15.82959219 72.14924919 20 68 C18.54131246 64.64000982 16.69131052 62.44796894 14.10107422 59.87402344 C13.3003952 59.07349548 12.49971619 58.27296753 11.67477417 57.44818115 C10.81014557 56.59387512 9.94551697 55.73956909 9.0546875 54.859375 C8.1696756 53.97719299 7.2846637 53.09501099 6.37283325 52.18609619 C4.02549869 49.84805457 1.67393215 47.51444126 -0.67980957 45.18286133 C-3.08313927 42.80003474 -5.48077767 40.41149652 -7.87890625 38.0234375 C-12.58071467 33.34368138 -17.28818664 28.66968133 -22 24 C-20.30145963 20.37916872 -18.28895218 18.05744646 -15.4296875 15.234375 C-14.08583984 13.90019531 -14.08583984 13.90019531 -12.71484375 12.5390625 C-11.77769531 11.61867188 -10.84054688 10.69828125 -9.875 9.75 C-8.92011363 8.80515144 -7.96568141 7.85984367 -7.01171875 6.9140625 C-4.67890913 4.60481662 -2.34155914 2.30036797 0 0 Z " fill="#FEFDFE" transform="translate(134,111)"/>
<path d="M0 0 C6.710079 5.63327583 10.38451572 11.84885967 13.12890625 20.08203125 C14.06102229 31.83280564 12.33433863 40.98074691 4.89453125 50.26171875 C-2.28310503 57.6616712 -10.47764773 60.34926522 -20.68359375 60.51953125 C-27.81596989 60.51460047 -33.01040709 59.18451191 -38.87109375 55.08203125 C-39.5259375 54.63601563 -40.18078125 54.19 -40.85546875 53.73046875 C-47.29611772 48.80364753 -50.69839824 41.76711143 -52.87109375 34.08203125 C-54.21814609 22.65799121 -52.28073645 14.07592645 -45.23046875 4.9609375 C-33.32637165 -7.9722521 -14.65987415 -9.79319484 0 0 Z " fill="#3E1A52" transform="translate(198.87109375,306.91796875)"/>
<path d="M0 0 C7.35567012 4.97752113 13.04317116 13.02123969 14.890625 21.78125 C15.93554267 32.24493943 14.3744579 41.69508717 7.625 49.96484375 C0.06474539 57.88267797 -8.76195169 61.72891671 -19.671875 62.21875 C-28.02607624 62.15686703 -34.76401643 58.62836367 -41.046875 53.28125 C-41.7275 52.45625 -42.408125 51.63125 -43.109375 50.78125 C-43.975625 49.87375 -44.841875 48.96625 -45.734375 48.03125 C-51.7104679 40.52814283 -52.19422955 30.98941215 -51.40234375 21.73974609 C-50.14386628 13.32682423 -45.00975892 6.59052622 -38.5078125 1.40625 C-27.06938525 -6.3435639 -12.0282713 -6.94966786 0 0 Z " fill="#3D1A52" transform="translate(351.109375,149.21875)"/>
</svg>
